<svg id="visual" viewBox="0 0 4000 2000" width="4000" height="2000" xmlns="http://www.w3.org/2000/svg" xmlns:xlink="http://www.w3.org/1999/xlink" version="1.1"><path d="M0 421L364 761L727 601L1091 381L1455 741L1818 461L2182 641L2545 521L2909 361L3273 741L3636 441L4000 641L4000 0L3636 0L3273 0L2909 0L2545 0L2182 0L1818 0L1455 0L1091 0L727 0L364 0L0 0Z" fill="#ff00f0"></path><path d="M0 701L364 941L727 821L1091 581L1455 1021L1818 901L2182 881L2545 821L2909 621L3273 1181L3636 961L4000 861L4000 639L3636 439L3273 739L2909 359L2545 519L2182 639L1818 459L1455 739L1091 379L727 599L364 759L0 419Z" fill="#c10cb5"></path><path d="M0 1121L364 1261L727 1181L1091 781L1455 1341L1818 1081L2182 1121L2545 1041L2909 821L3273 1341L3636 1121L4000 1061L4000 859L3636 959L3273 1179L2909 619L2545 819L2182 879L1818 899L1455 1019L1091 579L727 819L364 939L0 699Z" fill="#870e7e"></path><path d="M0 1301L364 1601L727 1361L1091 1101L1455 1621L1818 1261L2182 1341L2545 1241L2909 1001L3273 1661L3636 1261L4000 1381L4000 1059L3636 1119L3273 1339L2909 819L2545 1039L2182 1119L1818 1079L1455 1339L1091 779L727 1179L364 1259L0 1119Z" fill="#510b4b"></path><path d="M0 2001L364 2001L727 2001L1091 2001L1455 2001L1818 2001L2182 2001L2545 2001L2909 2001L3273 2001L3636 2001L4000 2001L4000 1379L3636 1259L3273 1659L2909 999L2545 1239L2182 1339L1818 1259L1455 1619L1091 1099L727 1359L364 1599L0 1299Z" fill="#22011e"></path></svg>