<svg id="visual" viewBox="0 0 4000 2000" width="4000" height="2000" xmlns="http://www.w3.org/2000/svg" xmlns:xlink="http://www.w3.org/1999/xlink" version="1.1"><rect x="0" y="0" width="4000" height="2000" fill="#001220"></rect><path d="M0 536L95.2 536.8C190.3 537.7 380.7 539.3 571.2 546.5C761.7 553.7 952.3 566.3 1142.8 601.7C1333.3 637 1523.7 695 1714.2 699.7C1904.7 704.3 2095.3 655.7 2285.8 632C2476.3 608.3 2666.7 609.7 2857.2 644.7C3047.7 679.7 3238.3 748.3 3428.8 774.7C3619.3 801 3809.7 785 3904.8 777L4000 769L4000 0L3904.8 0C3809.7 0 3619.3 0 3428.8 0C3238.3 0 3047.7 0 2857.2 0C2666.7 0 2476.3 0 2285.8 0C2095.3 0 1904.7 0 1714.2 0C1523.7 0 1333.3 0 1142.8 0C952.3 0 761.7 0 571.2 0C380.7 0 190.3 0 95.2 0L0 0Z" fill="#fa7268"></path><path d="M0 509L95.2 502.7C190.3 496.3 380.7 483.7 571.2 504.3C761.7 525 952.3 579 1142.8 597.3C1333.3 615.7 1523.7 598.3 1714.2 595.2C1904.7 592 2095.3 603 2285.8 582C2476.3 561 2666.7 508 2857.2 494.8C3047.7 481.7 3238.3 508.3 3428.8 540.2C3619.3 572 3809.7 609 3904.8 627.5L4000 646L4000 0L3904.8 0C3809.7 0 3619.3 0 3428.8 0C3238.3 0 3047.7 0 2857.2 0C2666.7 0 2476.3 0 2285.8 0C2095.3 0 1904.7 0 1714.2 0C1523.7 0 1333.3 0 1142.8 0C952.3 0 761.7 0 571.2 0C380.7 0 190.3 0 95.2 0L0 0Z" fill="#ef5f67"></path><path d="M0 449L95.2 455C190.3 461 380.7 473 571.2 458.8C761.7 444.7 952.3 404.3 1142.8 401.8C1333.3 399.3 1523.7 434.7 1714.2 444.2C1904.7 453.7 2095.3 437.3 2285.8 414.8C2476.3 392.3 2666.7 363.7 2857.2 354.8C3047.7 346 3238.3 357 3428.8 387.8C3619.3 418.7 3809.7 469.3 3904.8 494.7L4000 520L4000 0L3904.8 0C3809.7 0 3619.3 0 3428.8 0C3238.3 0 3047.7 0 2857.2 0C2666.7 0 2476.3 0 2285.8 0C2095.3 0 1904.7 0 1714.2 0C1523.7 0 1333.3 0 1142.8 0C952.3 0 761.7 0 571.2 0C380.7 0 190.3 0 95.2 0L0 0Z" fill="#e34c67"></path><path d="M0 289L95.2 282.3C190.3 275.7 380.7 262.3 571.2 261.7C761.7 261 952.3 273 1142.8 265.2C1333.3 257.3 1523.7 229.7 1714.2 224.3C1904.7 219 2095.3 236 2285.8 254C2476.3 272 2666.7 291 2857.2 295.3C3047.7 299.7 3238.3 289.3 3428.8 270.3C3619.3 251.3 3809.7 223.7 3904.8 209.8L4000 196L4000 0L3904.8 0C3809.7 0 3619.3 0 3428.8 0C3238.3 0 3047.7 0 2857.2 0C2666.7 0 2476.3 0 2285.8 0C2095.3 0 1904.7 0 1714.2 0C1523.7 0 1333.3 0 1142.8 0C952.3 0 761.7 0 571.2 0C380.7 0 190.3 0 95.2 0L0 0Z" fill="#d53867"></path><path d="M0 128L95.2 138.2C190.3 148.3 380.7 168.7 571.2 165.5C761.7 162.3 952.3 135.7 1142.8 137.2C1333.3 138.7 1523.7 168.3 1714.2 183.7C1904.7 199 2095.3 200 2285.8 200.7C2476.3 201.3 2666.7 201.7 2857.2 188.5C3047.7 175.3 3238.3 148.7 3428.8 141C3619.3 133.3 3809.7 144.7 3904.8 150.3L4000 156L4000 0L3904.8 0C3809.7 0 3619.3 0 3428.8 0C3238.3 0 3047.7 0 2857.2 0C2666.7 0 2476.3 0 2285.8 0C2095.3 0 1904.7 0 1714.2 0C1523.7 0 1333.3 0 1142.8 0C952.3 0 761.7 0 571.2 0C380.7 0 190.3 0 95.2 0L0 0Z" fill="#c62368"></path></svg>