<svg id="visual" viewBox="0 0 1000 100" width="1000" height="100" xmlns="http://www.w3.org/2000/svg" xmlns:xlink="http://www.w3.org/1999/xlink" version="1.1"><rect x="0" y="0" width="1000" height="100" fill="#002233"></rect><path d="M0 43L5.3 36.3C10.7 29.7 21.3 16.3 32.2 14.8C43 13.3 54 23.7 64.8 24.2C75.7 24.7 86.3 15.3 97 10.3C107.7 5.3 118.3 4.7 129 4C139.7 3.3 150.3 2.7 161.2 14.3C172 26 183 50 193.8 59.5C204.7 69 215.3 64 226 60.3C236.7 56.7 247.3 54.3 258 59.7C268.7 65 279.3 78 290.2 78.8C301 79.7 312 68.3 322.8 56.5C333.7 44.7 344.3 32.3 355 33.8C365.7 35.3 376.3 50.7 387 55.3C397.7 60 408.3 54 419.2 46C430 38 441 28 451.8 27.8C462.7 27.7 473.3 37.3 484 44.5C494.7 51.7 505.3 56.3 516 49.7C526.7 43 537.3 25 548.2 24.7C559 24.3 570 41.7 580.8 48.5C591.7 55.3 602.3 51.7 613 57.3C623.7 63 634.3 78 645 71.7C655.7 65.3 666.3 37.7 677.2 27.2C688 16.7 699 23.3 709.8 32.7C720.7 42 731.3 54 742 62.3C752.7 70.7 763.3 75.3 774 75.2C784.7 75 795.3 70 806.2 71.7C817 73.3 828 81.7 838.8 83.3C849.7 85 860.3 80 871 74.8C881.7 69.7 892.3 64.3 903 63.3C913.7 62.3 924.3 65.7 935.2 56.2C946 46.7 957 24.3 967.8 25.3C978.7 26.3 989.3 50.7 994.7 62.8L1000 75L1000 101L994.7 101C989.3 101 978.7 101 967.8 101C957 101 946 101 935.2 101C924.3 101 913.7 101 903 101C892.3 101 881.7 101 871 101C860.3 101 849.7 101 838.8 101C828 101 817 101 806.2 101C795.3 101 784.7 101 774 101C763.3 101 752.7 101 742 101C731.3 101 720.7 101 709.8 101C699 101 688 101 677.2 101C666.3 101 655.7 101 645 101C634.3 101 623.7 101 613 101C602.3 101 591.7 101 580.8 101C570 101 559 101 548.2 101C537.3 101 526.7 101 516 101C505.3 101 494.7 101 484 101C473.3 101 462.7 101 451.8 101C441 101 430 101 419.2 101C408.3 101 397.7 101 387 101C376.3 101 365.7 101 355 101C344.3 101 333.7 101 322.8 101C312 101 301 101 290.2 101C279.3 101 268.7 101 258 101C247.3 101 236.7 101 226 101C215.3 101 204.7 101 193.8 101C183 101 172 101 161.2 101C150.3 101 139.7 101 129 101C118.3 101 107.7 101 97 101C86.3 101 75.7 101 64.8 101C54 101 43 101 32.2 101C21.3 101 10.7 101 5.3 101L0 101Z" fill="#0066FF" stroke-linecap="round" stroke-linejoin="miter"></path></svg>